<svg width="156" height="19" viewBox="0 0 156 19" fill="none" xmlns="http://www.w3.org/2000/svg">
<path d="M8.224 18L0.88 1.2H4.264L10.816 16.392H8.872L15.496 1.2H18.616L11.296 18H8.224ZM20.3888 18V1.2H23.5088V18H20.3888ZM28.0529 18V1.2H30.6209L41.1569 14.136H39.8849V1.2H42.9809V18H40.4129L29.8769 5.064H31.1489V18H28.0529ZM57.6914 18.144C56.6354 18.144 55.6274 18 54.6674 17.712C53.7234 17.424 52.9794 17.072 52.4354 16.656L53.3954 14.832C53.9394 15.2 54.6114 15.512 55.4114 15.768C56.2114 16.024 57.0274 16.152 57.8594 16.152C58.9314 16.152 59.6994 16 60.1634 15.696C60.6434 15.392 60.8834 14.968 60.8834 14.424C60.8834 14.024 60.7394 13.712 60.4514 13.488C60.1634 13.264 59.7794 13.096 59.2994 12.984C58.8354 12.872 58.3154 12.776 57.7394 12.696C57.1634 12.6 56.5874 12.488 56.0114 12.36C55.4354 12.216 54.9074 12.024 54.4274 11.784C53.9474 11.528 53.5634 11.184 53.2754 10.752C52.9874 10.304 52.8434 9.712 52.8434 8.976C52.8434 8.208 53.0594 7.536 53.4914 6.96C53.9234 6.384 54.5314 5.944 55.3154 5.64C56.1154 5.32 57.0594 5.16 58.1474 5.16C58.9794 5.16 59.8194 5.264 60.6674 5.472C61.5314 5.664 62.2354 5.944 62.7794 6.312L61.7954 8.136C61.2194 7.752 60.6194 7.488 59.9954 7.344C59.3714 7.2 58.7474 7.128 58.1234 7.128C57.1154 7.128 56.3634 7.296 55.8674 7.632C55.3714 7.952 55.1234 8.368 55.1234 8.88C55.1234 9.312 55.2674 9.648 55.5554 9.888C55.8594 10.112 56.2434 10.288 56.7074 10.416C57.1874 10.544 57.7154 10.656 58.2914 10.752C58.8674 10.832 59.4434 10.944 60.0194 11.088C60.5954 11.216 61.1154 11.4 61.5794 11.64C62.0594 11.88 62.4434 12.216 62.7314 12.648C63.0354 13.08 63.1874 13.656 63.1874 14.376C63.1874 15.144 62.9634 15.808 62.5154 16.368C62.0674 16.928 61.4354 17.368 60.6194 17.688C59.8034 17.992 58.8274 18.144 57.6914 18.144ZM71.7308 18.144C70.3708 18.144 69.1708 17.864 68.1308 17.304C67.1068 16.744 66.3068 15.976 65.7308 15C65.1708 14.024 64.8908 12.904 64.8908 11.64C64.8908 10.376 65.1628 9.256 65.7068 8.28C66.2668 7.304 67.0268 6.544 67.9868 6C68.9628 5.44 70.0588 5.16 71.2748 5.16C72.5068 5.16 73.5948 5.432 74.5388 5.976C75.4828 6.52 76.2188 7.288 76.7468 8.28C77.2908 9.256 77.5628 10.4 77.5628 11.712C77.5628 11.808 77.5548 11.92 77.5388 12.048C77.5388 12.176 77.5308 12.296 77.5148 12.408H66.6908V10.752H76.3148L75.3788 11.328C75.3948 10.512 75.2268 9.784 74.8748 9.144C74.5228 8.504 74.0348 8.008 73.4108 7.656C72.8028 7.288 72.0908 7.104 71.2748 7.104C70.4748 7.104 69.7628 7.288 69.1388 7.656C68.5148 8.008 68.0268 8.512 67.6748 9.168C67.3228 9.808 67.1468 10.544 67.1468 11.376V11.76C67.1468 12.608 67.3388 13.368 67.7228 14.04C68.1228 14.696 68.6748 15.208 69.3788 15.576C70.0828 15.944 70.8908 16.128 71.8028 16.128C72.5548 16.128 73.2348 16 73.8428 15.744C74.4668 15.488 75.0108 15.104 75.4748 14.592L76.7468 16.08C76.1708 16.752 75.4508 17.264 74.5868 17.616C73.7388 17.968 72.7868 18.144 71.7308 18.144ZM88.3066 18V15.312L88.1866 14.808V10.224C88.1866 9.248 87.8986 8.496 87.3226 7.968C86.7626 7.424 85.9146 7.152 84.7786 7.152C84.0266 7.152 83.2906 7.28 82.5706 7.536C81.8506 7.776 81.2426 8.104 80.7466 8.52L79.7866 6.792C80.4426 6.264 81.2266 5.864 82.1386 5.592C83.0666 5.304 84.0346 5.16 85.0426 5.16C86.7866 5.16 88.1306 5.584 89.0746 6.432C90.0186 7.28 90.4906 8.576 90.4906 10.32V18H88.3066ZM84.1306 18.144C83.1866 18.144 82.3546 17.984 81.6346 17.664C80.9306 17.344 80.3866 16.904 80.0026 16.344C79.6186 15.768 79.4266 15.12 79.4266 14.4C79.4266 13.712 79.5866 13.088 79.9066 12.528C80.2426 11.968 80.7786 11.52 81.5146 11.184C82.2666 10.848 83.2746 10.68 84.5386 10.68H88.5706V12.336H84.6346C83.4826 12.336 82.7066 12.528 82.3066 12.912C81.9066 13.296 81.7066 13.76 81.7066 14.304C81.7066 14.928 81.9546 15.432 82.4506 15.816C82.9466 16.184 83.6346 16.368 84.5146 16.368C85.3786 16.368 86.1306 16.176 86.7706 15.792C87.4266 15.408 87.8986 14.848 88.1866 14.112L88.6426 15.696C88.3386 16.448 87.8026 17.048 87.0346 17.496C86.2666 17.928 85.2986 18.144 84.1306 18.144ZM94.7543 18V5.28H96.9623V8.736L96.7463 7.872C97.0983 6.992 97.6903 6.32 98.5223 5.856C99.3543 5.392 100.378 5.16 101.594 5.16V7.392C101.498 7.376 101.402 7.368 101.306 7.368C101.226 7.368 101.146 7.368 101.066 7.368C99.8343 7.368 98.8583 7.736 98.1383 8.472C97.4183 9.208 97.0583 10.272 97.0583 11.664V18H94.7543ZM109.861 18.144C108.565 18.144 107.405 17.864 106.381 17.304C105.373 16.744 104.581 15.976 104.005 15C103.429 14.024 103.141 12.904 103.141 11.64C103.141 10.376 103.429 9.256 104.005 8.28C104.581 7.304 105.373 6.544 106.381 6C107.405 5.44 108.565 5.16 109.861 5.16C111.013 5.16 112.037 5.392 112.933 5.856C113.845 6.304 114.549 6.976 115.045 7.872L113.293 9C112.877 8.376 112.365 7.92 111.757 7.632C111.165 7.328 110.525 7.176 109.837 7.176C109.005 7.176 108.261 7.36 107.605 7.728C106.949 8.096 106.429 8.616 106.045 9.288C105.661 9.944 105.469 10.728 105.469 11.64C105.469 12.552 105.661 13.344 106.045 14.016C106.429 14.688 106.949 15.208 107.605 15.576C108.261 15.944 109.005 16.128 109.837 16.128C110.525 16.128 111.165 15.984 111.757 15.696C112.365 15.392 112.877 14.928 113.293 14.304L115.045 15.408C114.549 16.288 113.845 16.968 112.933 17.448C112.037 17.912 111.013 18.144 109.861 18.144ZM124.656 5.16C125.696 5.16 126.608 5.36 127.392 5.76C128.192 6.16 128.816 6.768 129.264 7.584C129.712 8.4 129.936 9.432 129.936 10.68V18H127.632V10.944C127.632 9.712 127.328 8.784 126.72 8.16C126.128 7.536 125.288 7.224 124.2 7.224C123.384 7.224 122.672 7.384 122.064 7.704C121.456 8.024 120.984 8.496 120.648 9.12C120.328 9.744 120.168 10.52 120.168 11.448V18H117.864V0.191999H120.168V8.712L119.712 7.8C120.128 6.968 120.768 6.32 121.632 5.856C122.496 5.392 123.504 5.16 124.656 5.16ZM139.864 18.144C138.504 18.144 137.304 17.864 136.264 17.304C135.24 16.744 134.44 15.976 133.864 15C133.304 14.024 133.024 12.904 133.024 11.64C133.024 10.376 133.296 9.256 133.84 8.28C134.4 7.304 135.16 6.544 136.12 6C137.096 5.44 138.192 5.16 139.408 5.16C140.64 5.16 141.728 5.432 142.672 5.976C143.616 6.52 144.352 7.288 144.88 8.28C145.424 9.256 145.696 10.4 145.696 11.712C145.696 11.808 145.688 11.92 145.672 12.048C145.672 12.176 145.664 12.296 145.648 12.408H134.824V10.752H144.448L143.512 11.328C143.528 10.512 143.36 9.784 143.008 9.144C142.656 8.504 142.168 8.008 141.544 7.656C140.936 7.288 140.224 7.104 139.408 7.104C138.608 7.104 137.896 7.288 137.272 7.656C136.648 8.008 136.16 8.512 135.808 9.168C135.456 9.808 135.28 10.544 135.28 11.376V11.76C135.28 12.608 135.472 13.368 135.856 14.04C136.256 14.696 136.808 15.208 137.512 15.576C138.216 15.944 139.024 16.128 139.936 16.128C140.688 16.128 141.368 16 141.976 15.744C142.6 15.488 143.144 15.104 143.608 14.592L144.88 16.08C144.304 16.752 143.584 17.264 142.72 17.616C141.872 17.968 140.92 18.144 139.864 18.144ZM148.895 18V5.28H151.103V8.736L150.887 7.872C151.239 6.992 151.831 6.32 152.663 5.856C153.495 5.392 154.519 5.16 155.735 5.16V7.392C155.639 7.376 155.543 7.368 155.447 7.368C155.367 7.368 155.287 7.368 155.207 7.368C153.975 7.368 152.999 7.736 152.279 8.472C151.559 9.208 151.199 10.272 151.199 11.664V18H148.895Z" fill="black" fill-opacity="0.84"/>
</svg>
